<?xml version="1.0" encoding="UTF-8" standalone="no"?>
<!DOCTYPE svg PUBLIC "-//W3C//DTD SVG 1.1//EN" "http://www.w3.org/Graphics/SVG/1.1/DTD/svg11.dtd">
<svg width="100%" height="100%" viewBox="0 0 987 500" version="1.1" xmlns="http://www.w3.org/2000/svg" xmlns:xlink="http://www.w3.org/1999/xlink" xml:space="preserve" xmlns:serif="http://www.serif.com/" style="fill-rule:evenodd;clip-rule:evenodd;stroke-linejoin:round;stroke-miterlimit:2;">
    <g transform="matrix(2.68962,0,0,2.68962,0,0)">
        <g>
            <g id="Logo">
                <g>
                    <g>
                        <path d="M130.2,112.2l0,-45l-39,-22.5l0,17.3l15.3,8.8c0.6,0.3 0.6,1.2 0,1.5l-18.2,10.5c-0.5,0.3 -1.2,0.3 -1.7,0l-18.2,-10.6c-0.6,-0.3 -0.6,-1.2 0,-1.5l15.3,-8.8l0,-17.3l-39,22.5l0,45.1l0,-0.2l0,0.2l15,-8.6l0,-17.7c0,-0.6 0.7,-1.1 1.3,-0.7l18.2,10.5c0.5,0.3 0.9,0.9 0.9,1.5l0,21c0,0.6 -0.7,1.1 -1.3,0.7l-15.3,-8.8l-15,8.6l39,22.5l39,-22.5l-15,-8.6l-15.3,8.8c-0.5,0.3 -1.3,-0.1 -1.3,-0.7l0,-21c0,-0.6 0.3,-1.2 0.9,-1.5l18.2,-10.5c0.5,-0.3 1.3,0.1 1.3,0.7l0,17.7l14.9,8.6Z" style="fill:#4c4c4c;fill-rule:nonzero;"/>
                        <path d="M87.4,141.3l39,-22.5l-15,-8.6l-15.3,8.8c-0.5,0.3 -1.3,-0.1 -1.3,-0.7l0,-21c0,-0.6 0.3,-1.2 0.9,-1.5l18.2,-10.5c0.5,-0.3 1.3,0.1 1.3,0.7l0,17.7l15,8.6l0,-45.1l-42.8,24.7l0,49.4Z" style="fill-rule:nonzero;"/>
                        <path d="M91.1,44.6l-0,17.3l15.3,8.8c0.6,0.3 0.6,1.2 -0,1.5l-18.2,10.5c-0.5,0.3 -1.2,0.3 -1.7,0l-18.1,-10.5c-0.6,-0.3 -0.6,-1.2 0,-1.5l15.3,-8.8l0,-17.3l-39,22.5l42.8,24.7l42.8,-24.7l-39.2,-22.5Z" style="fill:#808080;fill-rule:nonzero;"/>
                        <path d="M78.6,118.9l-15.3,-8.8l-15,8.6l39,22.5l-0,-49.4l-42.7,-24.6l-0,45.1l-0,-0.2l-0,0.2l15,-8.6l-0,-17.7c-0,-0.6 0.7,-1.1 1.3,-0.7l18.2,10.5c0.5,0.3 0.9,0.9 0.9,1.5l-0,21c-0.1,0.5 -0.8,0.9 -1.4,0.6Z" style="fill:#4c4c4c;fill-rule:nonzero;"/>
                    </g>
                    <g>
                        <path d="M152.7,97.2l-0,-27.4l11.5,0l-0,27.8c-0,4.5 2.3,7.6 8,7.6c5.3,0 7.9,-3.2 7.9,-7.8l-0,-27.6l11.5,0l-0,27.4c-0,10.7 -6.4,17.2 -19.4,17.2c-13,0 -19.5,-6.3 -19.5,-17.2Z" style="fill-rule:nonzero;"/>
                        <path d="M196.9,80.3l10.2,0l0,4.5l0.2,0c2.5,-3.6 5.7,-5.5 10.3,-5.5c7.3,0 11.6,5.2 11.6,12.6l0,21.6l-10.6,0l0,-19.4c0,-3.5 -1.8,-5.9 -5.2,-5.9c-3.5,0 -5.8,2.9 -5.8,7l0,18.4l-10.6,0l0,-33.3l-0.1,0Z" style="fill-rule:nonzero;"/>
                        <path d="M234.6,67.2l10.6,0l0,8.6l-10.6,0l0,-8.6Zm0,13.1l10.6,0l0,33.3l-10.6,0l0,-33.3Z" style="fill-rule:nonzero;"/>
                        <path d="M253.5,104.8l0,-15.9l-4.4,0l0,-8.6l4.4,0l0,-10.5l10.3,0l0,10.5l6,0l0,8.6l-6,0l0,13.6c0,2.6 1.4,3.2 3.7,3.2c0.9,0 1.9,-0.1 2.3,-0.1l0,7.7c-0.9,0.3 -2.9,0.5 -5.8,0.5c-6.1,0.2 -10.5,-1.8 -10.5,-9Z" style="fill-rule:nonzero;"/>
                        <path d="M276.4,116.3l3.6,0c3.1,0 4.4,-1.2 4.4,-3.5c-0,-1.4 -0.6,-3.4 -2,-6.9l-9.8,-25.6l11.2,0l4.5,14.2c1,3.2 2.1,7.7 2.1,7.7l0.1,0c-0,0 0.9,-4.4 1.9,-7.7l4.4,-14.2l10.6,0l-11.5,33.7c-2.7,7.8 -5.8,10.5 -12.5,10.5l-6.9,0l-0,-8.2l-0.1,0Z" style="fill-rule:nonzero;"/>
                        <g>
                            <path d="M321.9,82.9c-0.2,-0.5 -0.5,-1 -0.9,-1.4c-0.4,-0.4 -0.8,-0.7 -1.4,-0.9c-0.5,-0.2 -1.1,-0.3 -1.6,-0.3c-0.5,0 -1.1,0.1 -1.6,0.3c-0.5,0.2 -1,0.5 -1.4,0.9c-0.4,0.4 -0.7,0.8 -0.9,1.4c-0.2,0.5 -0.3,1.1 -0.3,1.6c-0,0.6 0.1,1.1 0.3,1.6c0.2,0.5 0.5,1 0.9,1.4c0.4,0.4 0.8,0.7 1.4,0.9c0.5,0.2 1.1,0.3 1.6,0.3c0.5,0 1.1,-0.1 1.6,-0.3c0.5,-0.2 1,-0.5 1.4,-0.9c0.4,-0.4 0.7,-0.8 0.9,-1.4c0.2,-0.5 0.3,-1.1 0.3,-1.6c-0,-0.5 -0.1,-1.1 -0.3,-1.6Zm-1.1,3.3c-0.3,0.5 -0.7,0.9 -1.2,1.2c-0.5,0.3 -1,0.4 -1.6,0.4c-0.6,0 -1.1,-0.1 -1.6,-0.4c-0.5,-0.3 -0.9,-0.7 -1.2,-1.2c-0.3,-0.5 -0.4,-1 -0.4,-1.6c0,-0.6 0.1,-1.1 0.4,-1.6c0.3,-0.5 0.7,-0.9 1.2,-1.2c0.5,-0.3 1,-0.4 1.6,-0.4c0.6,0 1.1,0.1 1.6,0.4c0.5,0.3 0.9,0.7 1.2,1.2c0.3,0.5 0.4,1 0.4,1.6c0,0.6 -0.1,1.1 -0.4,1.6Z" style="fill-rule:nonzero;"/>
                            <path d="M319.5,84.6c0.1,-0.2 0.2,-0.4 0.2,-0.7c0,-0.3 -0.1,-0.5 -0.2,-0.7c-0.1,-0.2 -0.3,-0.3 -0.5,-0.4c-0.2,-0.1 -0.4,-0.1 -0.5,-0.1l-2,-0l0,3.9l0.9,-0l0,-1.3l0.9,-0l0.7,1.3l0.9,-0l-0.8,-1.5c0.1,-0.2 0.3,-0.4 0.4,-0.5Zm-2.1,-1.4l0.8,0c0.1,0 0.2,0 0.4,0.1c0.1,0.1 0.2,0.2 0.2,0.5c0,0.2 -0.1,0.4 -0.2,0.5c-0.1,0.1 -0.3,0.2 -0.4,0.2l-0.8,0l0,-1.3Z" style="fill-rule:nonzero;"/>
                        </g>
                    </g>
                </g>
            </g>
        </g>
    </g>
</svg>
